simulation
nRows=67
nColumns=15
endheader
time  TH_x TH_y TH_z SC_y  SC_z  SC_x  AC_y  AC_z  AC_x  GH_y  GH_z  GH_yy  EL_x  PS_y
0.500000  0.000000  0.000000  0.000000  -22.093560  0.359301  30.022681  80.150122  18.423549  9.581487  51.717053  59.994424  -31.355017  22.790591  131.676521
0.500112  0.000000  0.000000  0.000000  -22.093560  0.359301  33.772681  80.339327  14.727734  8.918637  51.717053  59.994424  -31.355017  22.790591  131.676521
0.500224  0.000000  0.000000  0.000000  -22.093560  0.359301  37.522681  80.482212  11.030093  8.277930  51.717053  59.994424  -31.355017  22.790591  131.676521
0.500336  0.000000  0.000000  0.000000  -22.093560  0.359301  41.272681  80.581940  7.331139  7.653183  51.717053  59.994424  -31.355017  22.790591  131.676521
0.500448  0.000000  0.000000  0.000000  -22.093560  0.359301  45.022681  80.640663  3.631337  7.038737  51.717053  59.994424  -31.355017  22.790591  131.676521
0.500560  0.000000  0.000000  0.000000  -22.093560  0.359301  48.772681  80.659616  -0.068877  6.429314  51.717053  59.994424  -31.355017  22.790591  131.676521
0.500672  0.000000  0.000000  0.000000  -22.093560  0.359301  52.522681  80.639194  -3.769085  5.819796  51.717053  59.994424  -31.355017  22.790591  131.676521
0.500784  0.000000  0.000000  0.000000  -22.093560  0.359301  56.272681  80.578971  -7.468864  5.205065  51.717053  59.994424  -31.355017  22.790591  131.676521
0.500896  0.000000  0.000000  0.000000  -22.093560  0.359301  60.022681  80.477681  -11.167777  4.579820  51.717053  59.994424  -31.355017  22.790591  131.676521
0.501009  0.000000  0.000000  0.000000  -22.093560  0.359301  63.772681  80.333137  -14.865361  3.938413  51.717053  59.994424  -31.355017  22.790591  131.676521
0.501121  0.000000  0.000000  0.000000  -22.093560  0.359301  67.522681  80.142142  -18.561103  3.274623  51.717053  59.994424  -31.355017  22.790591  131.676521
0.501233  0.000000  0.000000  0.000000  -22.093560  0.359301  71.272681  79.900292  -22.254421  2.581411  51.717053  59.994424  -31.355017  22.790591  131.676521
0.501345  0.000000  0.000000  0.000000  -22.093560  0.359301  75.022681  79.601726  -25.944637  1.850610  51.717053  59.994424  -31.355017  22.790591  131.676521
0.501457  0.000000  0.000000  0.000000  -32.613503  3.845570  -14.977319  41.210157  56.579473  34.787660  51.629668  54.080264  -30.266179  16.739050  119.346051
0.501569  0.000000  0.000000  0.000000  -32.613503  3.845570  -11.227319  45.160470  54.011104  29.984613  51.629668  54.080264  -30.266179  16.739050  119.346051
0.501681  0.000000  0.000000  0.000000  -32.613503  3.845570  -7.477319  48.522304  51.273989  25.757087  51.629668  54.080264  -30.266179  16.739050  119.346051
0.501793  0.000000  0.000000  0.000000  -32.613503  3.845570  -3.727319  51.382672  48.402003  22.015976  51.629668  54.080264  -30.266179  16.739050  119.346051
0.501905  0.000000  0.000000  0.000000  -32.613503  3.845570  0.022681  53.818661  45.421859  18.681961  51.629668  54.080264  -30.266179  16.739050  119.346051
0.502017  0.000000  0.000000  0.000000  -32.613503  3.845570  3.772681  55.895888  42.354537  15.687044  51.629668  54.080264  -30.266179  16.739050  119.346051
0.502129  0.000000  0.000000  0.000000  -32.613503  3.845570  7.522681  57.668934  39.216591  12.974075  51.629668  54.080264  -30.266179  16.739050  119.346051
0.502241  0.000000  0.000000  0.000000  -32.613503  3.845570  11.272681  59.182654  36.021143  10.495424  51.629668  54.080264  -30.266179  16.739050  119.346051
0.502353  0.000000  0.000000  0.000000  -32.613503  3.845570  15.022681  60.473642  32.778685  8.211473  51.629668  54.080264  -30.266179  16.739050  119.346051
0.502465  0.000000  0.000000  0.000000  -32.613503  3.845570  18.772681  61.571629  29.497719  6.089178  51.629668  54.080264  -30.266179  16.739050  119.346051
0.502577  0.000000  0.000000  0.000000  -32.613503  3.845570  22.522681  62.500708  26.185186  4.100808  51.629668  54.080264  -30.266179  16.739050  119.346051
0.502689  0.000000  0.000000  0.000000  -32.613503  3.845570  26.272681  63.280331  22.846847  2.222889  51.629668  54.080264  -30.266179  16.739050  119.346051
0.502801  0.000000  0.000000  0.000000  -32.613503  3.845570  30.022681  63.926127  19.487546  0.435325  51.629668  54.080264  -30.266179  16.739050  119.346051
0.502913  0.000000  0.000000  0.000000  -32.613503  3.845570  33.772681  64.450537  16.111424  -1.279317  51.629668  54.080264  -30.266179  16.739050  119.346051
0.503026  0.000000  0.000000  0.000000  -32.613503  3.845570  37.522681  64.863319  12.722074  -2.936409  51.629668  54.080264  -30.266179  16.739050  119.346051
0.503138  0.000000  0.000000  0.000000  -32.613503  3.845570  41.272681  65.171927  9.322693  -4.549724  51.629668  54.080264  -30.266179  16.739050  119.346051
0.503250  0.000000  0.000000  0.000000  -32.613503  3.845570  45.022681  65.381816  5.916205  -6.131839  51.629668  54.080264  -30.266179  16.739050  119.346051
0.503362  0.000000  0.000000  0.000000  -32.613503  3.845570  48.772681  65.496614  2.505290  -7.694546  51.629668  54.080264  -30.266179  16.739050  119.346051
0.503474  0.000000  0.000000  0.000000  -32.613503  3.845570  52.522681  65.518300  -0.907476  -9.249122  51.629668  54.080264  -30.266179  16.739050  119.346051
0.503586  0.000000  0.000000  0.000000  -32.613503  3.845570  56.272681  65.447244  -4.319573  -10.806638  51.629668  54.080264  -30.266179  16.739050  119.346051
0.503698  0.000000  0.000000  0.000000  -32.613503  3.845570  60.022681  65.282223  -7.728464  -12.378242  51.629668  54.080264  -30.266179  16.739050  119.346051
0.503810  0.000000  0.000000  0.000000  -32.613503  3.845570  63.772681  65.020412  -11.131514  -13.975426  51.629668  54.080264  -30.266179  16.739050  119.346051
0.503922  0.000000  0.000000  0.000000  -32.613503  3.845570  67.522681  64.657201  -14.525929  -15.610384  51.629668  54.080264  -30.266179  16.739050  119.346051
0.504034  0.000000  0.000000  0.000000  -32.613503  3.845570  71.272681  64.186131  -17.908667  -17.296281  51.629668  54.080264  -30.266179  16.739050  119.346051
0.504146  0.000000  0.000000  0.000000  -32.613503  3.845570  75.022681  63.598544  -21.276332  -19.047674  51.629668  54.080264  -30.266179  16.739050  119.346051
0.504258  0.000000  0.000000  0.000000  -19.076608  1.085407  -14.977319  42.271624  47.672915  20.991215  48.703163  59.833335  -64.477646  29.833350  121.842038
0.504370  0.000000  0.000000  0.000000  -19.076608  1.085407  -11.227319  45.117857  45.081072  17.061121  48.703163  59.833335  -64.477646  29.833350  121.842038
0.504482  0.000000  0.000000  0.000000  -19.076608  1.085407  -7.477319  47.594277  42.366315  13.479854  48.703163  59.833335  -64.477646  29.833350  121.842038
0.504594  0.000000  0.000000  0.000000  -19.076608  1.085407  -3.727319  49.744772  39.549444  10.200683  48.703163  59.833335  -64.477646  29.833350  121.842038
0.504706  0.000000  0.000000  0.000000  -19.076608  1.085407  0.022681  51.608722  36.647723  7.181175  48.703163  59.833335  -64.477646  29.833350  121.842038
0.504818  0.000000  0.000000  0.000000  -19.076608  1.085407  3.772681  53.220554  33.675363  4.383602  48.703163  59.833335  -64.477646  29.833350  121.842038
0.504931  0.000000  0.000000  0.000000  -19.076608  1.085407  7.522681  54.609805  30.644217  1.774852  48.703163  59.833335  -64.477646  29.833350  121.842038
0.505043  0.000000  0.000000  0.000000  -19.076608  1.085407  11.272681  55.801492  27.564177  -0.673999  48.703163  59.833335  -64.477646  29.833350  121.842038
0.505155  0.000000  0.000000  0.000000  -19.076608  1.085407  15.022681  56.816613  24.443551  -2.988227  48.703163  59.833335  -64.477646  29.833350  121.842038
0.505267  0.000000  0.000000  0.000000  -19.076608  1.085407  18.772681  57.672585  21.289431  -5.189965  48.703163  59.833335  -64.477646  29.833350  121.842038
0.505379  0.000000  0.000000  0.000000  -19.076608  1.085407  22.522681  58.383750  18.107895  -7.298765  48.703163  59.833335  -64.477646  29.833350  121.842038
0.505491  0.000000  0.000000  0.000000  -19.076608  1.085407  26.272681  58.961720  14.904250  -9.332034  48.703163  59.833335  -64.477646  29.833350  121.842038
0.505603  0.000000  0.000000  0.000000  -19.076608  1.085407  30.022681  59.415731  11.683208  -11.305456  48.703163  59.833335  -64.477646  29.833350  121.842038
0.505715  0.000000  0.000000  0.000000  -19.076608  1.085407  33.772681  59.752858  8.448983  -13.233406  48.703163  59.833335  -64.477646  29.833350  121.842038
0.505827  0.000000  0.000000  0.000000  -19.076608  1.085407  37.522681  59.978337  5.205499  -15.129210  48.703163  59.833335  -64.477646  29.833350  121.842038
0.505939  0.000000  0.000000  0.000000  -19.076608  1.085407  41.272681  60.095586  1.956402  -17.005528  48.703163  59.833335  -64.477646  29.833350  121.842038
0.506051  0.000000  0.000000  0.000000  -19.076608  1.085407  45.022681  60.106383  -1.294780  -18.874582  48.703163  59.833335  -64.477646  29.833350  121.842038
0.506163  0.000000  0.000000  0.000000  -19.076608  1.085407  48.772681  60.010886  -4.544583  -20.748439  48.703163  59.833335  -64.477646  29.833350  121.842038
0.506275  0.000000  0.000000  0.000000  -19.076608  1.085407  52.522681  59.807651  -7.789491  -22.639270  48.703163  59.833335  -64.477646  29.833350  121.842038
0.506387  0.000000  0.000000  0.000000  -19.076608  1.085407  56.272681  59.493617  -11.025910  -24.559617  48.703163  59.833335  -64.477646  29.833350  121.842038
0.506499  0.000000  0.000000  0.000000  -19.076608  1.085407  60.022681  59.063910  -14.249970  -26.522660  48.703163  59.833335  -64.477646  29.833350  121.842038
0.506611  0.000000  0.000000  0.000000  -19.076608  1.085407  63.772681  58.511841  -17.457522  -28.542522  48.703163  59.833335  -64.477646  29.833350  121.842038
0.506723  0.000000  0.000000  0.000000  -19.076608  1.085407  67.522681  57.828649  -20.643963  -30.634606  48.703163  59.833335  -64.477646  29.833350  121.842038
0.506835  0.000000  0.000000  0.000000  -19.076608  1.085407  71.272681  57.003211  -23.804130  -32.815926  48.703163  59.833335  -64.477646  29.833350  121.842038
0.506948  0.000000  0.000000  0.000000  -19.076608  1.085407  75.022681  56.021789  -26.932109  -35.105555  48.703163  59.833335  -64.477646  29.833350  121.842038
0.507060  0.000000  0.000000  0.000000  -17.939597  -3.635856  -14.977319  73.916760  58.340117  8.429441  58.847920  46.286465  -44.226951  31.441487  126.447432
0.507172  0.000000  0.000000  0.000000  -17.939597  -3.635856  -11.227319  75.417293  54.723196  6.631593  58.847920  46.286465  -44.226951  31.441487  126.447432
0.507284  0.000000  0.000000  0.000000  -17.939597  -3.635856  -7.477319  76.616056  51.084048  5.129470  58.847920  46.286465  -44.226951  31.441487  126.447432
0.507396  0.000000  0.000000  0.000000  -17.939597  -3.635856  -3.727319  77.588070  47.428469  3.847181  58.847920  46.286465  -44.226951  31.441487  126.447432
